<svg width="583" height="114" viewBox="0 0 583 114" fill="none" xmlns="http://www.w3.org/2000/svg">
<rect x="0.832886" y="0.946289" width="577.34" height="108.716" rx="3" fill="#00D7DF"/>
<rect x="5.37598" y="4.83997" width="577.34" height="108.716" rx="3" fill="#FF7956"/>
<path d="M50.352 44.3128H61.419L55.401 72.4138H65.754L64.887 76.6978H43.467L50.352 44.3128ZM74.9556 44.3128H96.4266L95.6106 48.1888H85.2066L83.0646 58.0318H91.7856L90.9696 61.8568H82.2486L79.9026 72.7708H90.3066L89.5416 76.6978H68.0706L74.9556 44.3128ZM121.974 76.6978H110.04L109.326 68.5888H99.891L96.27 76.6978H91.323L106.368 44.3128H118.455L121.974 76.6978ZM101.574 64.8658H108.969L107.796 50.9938L101.574 64.8658ZM156.173 52.0138C156.173 54.0198 155.612 55.8728 154.49 57.5728C153.368 59.2728 151.515 60.5648 148.931 61.4488L154.847 76.6978H143.474L138.986 62.5708H138.425L135.416 76.6978H124.4L131.285 44.3128H144.698C146.262 44.3128 147.741 44.4148 149.135 44.6188C150.529 44.7888 151.736 45.1628 152.756 45.7408C153.81 46.2848 154.643 47.0668 155.255 48.0868C155.867 49.0728 156.173 50.3818 156.173 52.0138ZM141.485 59.3068C142.369 59.3068 143.117 59.0178 143.729 58.4398C144.375 57.8278 144.885 57.0968 145.259 56.2468C145.667 55.3968 145.956 54.4958 146.126 53.5438C146.296 52.5578 146.381 51.7078 146.381 50.9938C146.381 50.1098 146.228 49.3618 145.922 48.7498C145.616 48.1038 144.953 47.7808 143.933 47.7808H141.638L139.088 59.3068H141.485ZM183.856 76.6978H171.922L166.261 53.2888L161.263 76.6978H156.673L163.558 44.3128H175.747L181.102 68.0278L186.151 44.3128H190.843L183.856 76.6978ZM236.69 76.6978H225.368L230.06 54.6658L217.973 76.6978H211.037L208.742 53.9008L203.846 76.6978H199.256L206.141 44.3128H219.146L220.727 62.5708L230.519 44.3128H243.626L236.69 76.6978ZM263.248 43.8028C266.172 43.8028 268.535 44.1768 270.337 44.9248C272.173 45.6728 273.618 46.8288 274.672 48.3928C275.352 49.4468 275.879 50.6368 276.253 51.9628C276.627 53.2888 276.814 54.8188 276.814 56.5528C276.814 58.0488 276.678 59.5448 276.406 61.0408C276.134 62.5368 275.743 63.9818 275.233 65.3758C274.757 66.7358 274.162 68.0278 273.448 69.2518C272.768 70.4418 272.003 71.4958 271.153 72.4138C269.555 74.1478 267.702 75.3718 265.594 76.0858C263.52 76.7658 260.953 77.1058 257.893 77.1058C254.935 77.1058 252.555 76.7998 250.753 76.1878C248.951 75.5758 247.523 74.5898 246.469 73.2298C245.721 72.2778 245.126 71.0708 244.684 69.6088C244.276 68.1468 244.072 66.3108 244.072 64.1008C244.072 60.3268 244.735 56.9608 246.061 54.0028C247.421 51.0108 249.342 48.6478 251.824 46.9138C253.32 45.8598 254.986 45.0778 256.822 44.5678C258.658 44.0578 260.8 43.8028 263.248 43.8028ZM257.485 73.5358C258.267 73.5358 258.998 73.1958 259.678 72.5158C260.392 71.8018 261.038 70.8668 261.616 69.7108C262.228 68.5208 262.772 67.1778 263.248 65.6818C263.758 64.1858 264.183 62.6388 264.523 61.0408C264.863 59.4428 265.118 57.8618 265.288 56.2978C265.492 54.6998 265.594 53.2548 265.594 51.9628C265.594 50.1948 265.407 48.9878 265.033 48.3418C264.693 47.6618 264.183 47.3218 263.503 47.3218C262.721 47.3218 261.973 47.6618 261.259 48.3418C260.545 49.0218 259.865 49.9398 259.219 51.0958C258.607 52.2178 258.046 53.5268 257.536 55.0228C257.06 56.4848 256.635 57.9978 256.261 59.5618C255.921 61.1258 255.649 62.6728 255.445 64.2028C255.275 65.7328 255.19 67.1438 255.19 68.4358C255.19 70.3738 255.394 71.7168 255.802 72.4648C256.244 73.1788 256.805 73.5358 257.485 73.5358ZM308.973 52.0138C308.973 54.0198 308.412 55.8728 307.29 57.5728C306.168 59.2728 304.315 60.5648 301.731 61.4488L307.647 76.6978H296.274L291.786 62.5708H291.225L288.216 76.6978H277.2L284.085 44.3128H297.498C299.062 44.3128 300.541 44.4148 301.935 44.6188C303.329 44.7888 304.536 45.1628 305.556 45.7408C306.61 46.2848 307.443 47.0668 308.055 48.0868C308.667 49.0728 308.973 50.3818 308.973 52.0138ZM294.285 59.3068C295.169 59.3068 295.917 59.0178 296.529 58.4398C297.175 57.8278 297.685 57.0968 298.059 56.2468C298.467 55.3968 298.756 54.4958 298.926 53.5438C299.096 52.5578 299.181 51.7078 299.181 50.9938C299.181 50.1098 299.028 49.3618 298.722 48.7498C298.416 48.1038 297.753 47.7808 296.733 47.7808H294.438L291.888 59.3068H294.285ZM316.359 44.3128H337.83L337.014 48.1888H326.61L324.468 58.0318H333.189L332.373 61.8568H323.652L321.306 72.7708H331.71L330.945 76.6978H309.474L316.359 44.3128Z" fill="white"/>
<path d="M530.087 34.1978L551.84 59.1978L530.087 84.1978" stroke="white" stroke-width="4" stroke-linecap="round" stroke-linejoin="round"/>
</svg>
